<svg version="1.0" xmlns="http://www.w3.org/2000/svg"
 width="512.000000pt" height="512.000000pt" viewBox="0 0 512.000000 512.000000"
 preserveAspectRatio="xMidYMid meet">

<g transform="translate(0.000000,512.000000) scale(0.100000,-0.100000)"
fill="#000000" stroke="none">
<path fill="#333" d="M1262 4597 c-63 -36 -88 -138 -79 -321 6 -141 26 -251 67 -376 41
-126 70 -191 83 -183 6 4 8 0 4 -9 -3 -9 -1 -20 4 -25 16 -16 38 -112 49 -207
l9 -88 -33 -67 c-88 -174 -119 -319 -119 -556 -1 -191 14 -273 73 -392 22 -44
40 -84 40 -87 0 -3 -8 -6 -17 -6 -58 -1 -353 -120 -408 -165 -11 -9 9 -2 43
15 92 45 204 87 309 116 l92 25 38 -42 c21 -23 39 -44 40 -48 2 -3 -46 -28
-104 -56 -123 -57 -246 -141 -318 -217 l-50 -52 57 51 c32 28 89 72 127 97 70
47 286 156 309 156 13 0 12 -8 -9 -91 -7 -30 -22 -44 -86 -86 -87 -57 -186
-140 -229 -193 -16 -19 5 -4 46 33 71 64 231 180 238 172 2 -2 -7 -23 -19 -47
-37 -72 -78 -205 -90 -291 -11 -82 -8 -146 13 -267 11 -64 12 -65 19 -29 5 21
15 82 23 138 27 180 38 205 126 291 42 42 112 100 154 129 l77 53 73 -28 73
-29 -41 -55 c-60 -78 -84 -120 -106 -186 -30 -86 -23 -99 9 -18 32 81 84 164
135 213 l35 34 58 -16 c33 -9 97 -21 144 -25 73 -8 92 -14 140 -46 109 -72
256 -102 370 -76 30 7 99 36 154 64 90 47 110 53 200 64 55 6 128 20 162 31
l62 19 39 -52 c59 -78 81 -118 112 -208 32 -92 39 -89 14 5 -19 73 -43 122
-98 202 l-42 61 87 42 c77 38 91 42 111 31 56 -29 172 -113 224 -162 l56 -52
5 -105 c4 -90 2 -115 -17 -170 -30 -90 -99 -203 -83 -138 7 28 3 24 -69 -72
-54 -71 -180 -199 -353 -358 l-80 -72 50 24 c93 45 229 150 343 266 166 168
227 252 257 355 l15 50 -5 -80 -4 -80 24 80 c30 100 32 200 5 332 -10 54 -22
109 -26 123 l-7 25 24 -19 c13 -11 47 -43 74 -71 28 -28 43 -42 35 -31 -8 12
-44 53 -81 91 -59 63 -68 77 -84 140 -10 39 -22 78 -27 88 -12 24 -6 22 67
-22 93 -56 179 -123 264 -205 62 -59 68 -63 32 -21 -60 72 -150 146 -273 228
-61 40 -108 78 -108 87 0 8 7 23 15 34 14 18 16 18 101 -3 118 -30 247 -81
330 -130 45 -27 58 -32 39 -16 -73 63 -239 137 -368 166 -32 7 -60 16 -62 20
-3 4 11 40 30 81 40 83 71 214 80 338 14 173 -29 423 -97 571 l-35 74 39 73
c35 68 38 79 38 158 0 74 6 101 45 217 65 192 85 291 92 450 8 185 -6 268 -54
316 -31 31 -37 33 -83 29 -126 -12 -414 -220 -598 -430 -46 -53 -102 -109
-125 -125 l-41 -28 -160 4 c-263 7 -502 6 -651 -3 -181 -11 -185 -10 -336 160
-262 293 -528 468 -627 411z m167 -92 c27 -15 65 -41 83 -57 30 -26 28 -25
-25 7 -47 30 -126 65 -143 65 -2 0 -4 -4 -4 -10 0 -5 8 -10 18 -10 21 0 107
-56 182 -119 87 -73 220 -203 220 -215 0 -6 -35 23 -77 64 l-78 75 74 -77 c41
-42 78 -75 82 -72 13 8 90 -115 131 -210 43 -99 55 -118 44 -71 -18 77 -136
284 -204 358 -14 15 -21 27 -14 27 6 0 73 -67 148 -150 104 -114 143 -150 161
-150 49 0 122 -58 138 -111 5 -16 9 -18 15 -9 9 14 -4 68 -20 84 -18 18 125
35 330 41 147 5 212 2 315 -13 l130 -18 -3 -64 -3 -65 20 43 c11 23 32 58 47
78 22 29 33 35 53 31 22 -4 35 6 86 66 88 104 265 286 289 299 12 6 0 -11 -25
-39 -115 -123 -231 -309 -245 -393 -5 -28 2 -19 33 42 56 108 140 221 230 308
l77 75 -55 -65 c-118 -140 -106 -135 47 17 112 112 177 169 222 193 34 19 70
40 80 47 33 23 -60 -5 -120 -36 -32 -16 -58 -28 -58 -25 0 11 127 85 163 95
32 9 42 8 57 -6 31 -28 45 -110 44 -260 0 -151 -11 -216 -70 -435 -24 -90 -34
-154 -37 -227 -5 -102 -5 -103 -51 -175 -30 -47 -45 -80 -42 -93 5 -20 5 -20
-9 -1 -22 30 -18 16 19 -66 107 -230 111 -450 16 -719 -22 -63 -40 -118 -40
-123 0 -6 11 5 25 24 30 41 32 33 4 -21 l-20 -40 -106 7 c-59 4 -167 7 -242 8
-147 1 -181 14 -91 36 68 16 58 23 -13 9 -56 -10 -57 -10 -103 26 -53 40 -57
41 -75 19 -11 -13 -6 -21 31 -53 52 -45 47 -50 -61 -52 -111 -2 -104 -19 8
-19 91 0 103 -2 113 -19 20 -39 14 -41 -130 -41 -105 0 -140 -3 -140 -12 0
-10 35 -14 132 -16 73 -1 137 -7 141 -11 6 -6 5 -21 0 -38 -11 -30 -6 -30
-123 -19 -60 6 -63 5 -40 -8 14 -8 46 -20 73 -26 26 -7 50 -17 54 -22 6 -11
-22 -8 -62 7 -17 6 -16 4 4 -12 l23 -20 -30 -12 c-29 -12 -35 -10 -92 25 -33
20 -64 33 -68 29 -4 -4 -2 -10 5 -12 6 -2 33 -18 60 -36 l48 -32 -77 -3 c-88
-3 -169 15 -267 59 -124 56 -135 87 -68 188 37 56 48 66 88 78 26 7 52 19 58
27 19 22 9 57 -21 79 -25 19 -40 20 -180 18 -134 -2 -157 -5 -190 -24 -26 -14
-38 -28 -38 -43 0 -28 17 -42 71 -57 38 -11 50 -22 87 -77 54 -82 60 -105 36
-131 -22 -25 -117 -74 -190 -99 -64 -22 -167 -33 -214 -22 l-35 8 64 39 c81
50 62 58 -24 11 l-64 -37 -48 25 -48 24 73 22 c39 12 75 26 78 31 9 15 -21 10
-146 -25 l-25 -7 24 21 25 21 -30 -3 c-26 -3 -29 0 -32 28 -3 28 0 32 29 38
17 3 74 6 126 6 60 0 92 4 88 10 -4 6 -57 10 -126 10 -65 0 -119 2 -119 4 0 3
5 17 10 32 l11 27 101 -6 c127 -8 120 9 -11 26 l-91 11 42 38 c36 31 40 39 28
48 -24 16 -37 12 -72 -19 l-32 -28 -108 47 c-59 27 -126 62 -147 80 -53 41
-102 141 -111 223 l-6 62 -8 -51 c-10 -67 7 -155 40 -211 40 -68 98 -101 267
-148 105 -29 72 -39 -110 -32 -93 3 -188 2 -213 -3 -41 -7 -37 -8 36 -9 44 0
135 -4 202 -8 110 -5 120 -8 112 -23 -7 -14 -30 -18 -122 -23 -62 -3 -146 -13
-187 -22 -72 -17 -75 -17 -89 1 -19 26 -68 124 -77 154 -5 20 -2 18 21 -13 15
-20 29 -35 31 -33 3 2 -9 47 -26 99 -54 169 -58 256 -16 382 4 11 -5 2 -19
-20 l-26 -40 6 65 c11 122 44 236 95 336 48 94 49 97 33 122 -16 24 -27 152
-13 152 3 0 18 -13 34 -30 36 -38 54 -38 91 1 16 18 55 49 88 70 64 42 64 43
-33 58 -62 10 -125 42 -136 69 -3 8 9 2 27 -13 42 -35 73 -46 100 -36 19 7 15
9 -23 16 l-44 8 35 6 35 6 -35 14 c-19 8 -43 21 -52 29 -10 8 -18 11 -18 6 0
-5 -10 2 -21 16 -11 14 -17 19 -13 11 5 -9 3 -12 -4 -7 -18 11 -63 93 -88 160
-16 43 -23 53 -23 35 -1 -36 27 -125 59 -189 15 -30 35 -72 44 -94 21 -51 0
-34 -45 35 -17 27 -33 48 -36 46 -7 -8 18 -59 63 -129 43 -67 43 -69 15 -49
-56 40 -151 282 -192 491 -25 128 -30 352 -8 415 25 70 66 75 168 20z m-2
-1002 c1 -27 -1 -39 -3 -28 -3 11 -12 40 -19 64 -14 42 -14 43 3 28 12 -11 19
-32 19 -64z m1057 -1009 c3 -8 2 -12 -4 -9 -10 6 -15 -9 -10 -30 1 -5 -7 -2
-17 7 -10 9 -30 20 -45 23 -44 11 -32 25 21 25 35 0 51 -4 55 -16z m1048 -103
c59 -4 110 -10 114 -13 3 -4 -6 -22 -20 -41 l-27 -35 -85 19 c-47 11 -133 25
-191 32 -102 12 -143 30 -91 40 38 7 185 6 300 -2z m-1731 -51 c12 0 16 -5 13
-15 -4 -8 -16 -15 -29 -15 -37 0 -197 -29 -242 -44 -39 -13 -42 -13 -62 8 -12
12 -21 25 -21 28 0 17 267 52 308 41 8 -1 22 -3 33 -3z m1584 -15 c113 -17
195 -36 195 -45 0 -4 -11 -17 -24 -29 l-24 -22 -98 30 c-55 16 -125 35 -156
41 -43 8 -56 15 -51 26 7 18 33 18 158 -1z m-1565 -44 c0 -5 -19 -12 -42 -16
-24 -4 -84 -18 -135 -32 -76 -22 -95 -24 -107 -13 -26 20 -19 27 42 39 127 28
242 38 242 22z m1602 -37 c54 -15 98 -30 98 -34 0 -4 -9 -15 -19 -24 -18 -16
-21 -16 -57 0 -22 9 -77 29 -124 44 -50 17 -86 34 -88 43 -4 18 39 11 190 -29z
m-1600 -18 c4 -22 -3 -27 -86 -60 -50 -20 -96 -36 -102 -36 -18 0 -67 57 -55
65 16 9 192 54 217 55 15 0 23 -7 26 -24z m1515 -21 c42 -14 87 -32 101 -39
l24 -13 -30 -22 -30 -21 -96 42 c-69 31 -96 48 -96 60 0 25 36 23 127 -7z
m332 -72 c7 -27 14 -56 17 -65 4 -12 -11 -6 -50 20 l-56 36 32 33 c17 18 34
30 38 28 4 -3 13 -26 19 -52z m-379 -4 c83 -32 96 -45 57 -54 -16 -4 -43 6
-93 36 -83 50 -82 49 -60 49 9 0 53 -14 96 -31z m-1416 2 c16 -17 14 -20 -38
-55 l-54 -38 -43 22 -43 22 70 33 c82 40 86 40 108 16z m721 -21 c166 -84 329
-115 428 -81 38 13 40 12 73 -20 l35 -34 -38 -13 c-21 -7 -65 -16 -99 -19 -60
-6 -61 -5 -83 28 -21 31 -22 26 -5 -16 4 -10 0 -15 -12 -15 -11 0 -32 -9 -49
-21 -52 -35 -158 -86 -214 -103 -117 -35 -239 -10 -366 75 -53 36 -81 49 -95
44 -15 -5 -20 -2 -20 12 -1 17 -1 17 -11 0 -11 -19 -34 -18 -122 4 l-38 10 23
29 c22 28 25 28 93 23 94 -7 174 14 305 81 58 30 107 54 110 55 3 1 41 -17 85
-39z m-836 27 c-24 -19 -79 -44 -79 -37 0 6 15 16 33 24 29 13 56 20 46 13z
m1516 -100 l-37 -18 -54 42 c-51 39 -53 43 -39 59 15 17 20 15 91 -23 l75 -41
-36 -19z m356 28 c38 -24 69 -46 69 -49 0 -2 9 -48 20 -101 11 -53 20 -106 20
-117 0 -19 -2 -18 -21 6 -28 36 -152 136 -227 183 l-63 40 63 41 c35 23 64 41
66 42 2 0 35 -20 73 -45z m-2071 27 c0 -4 -9 -13 -20 -20 -16 -10 -20 -10 -20
1 0 8 3 17 7 20 9 9 33 9 33 -1z m369 -20 l29 -18 -29 -32 -30 -33 -44 17
c-25 9 -45 18 -45 20 0 3 82 63 87 64 2 0 16 -8 32 -18z m1246 -26 l48 -35
-33 -13 c-33 -14 -34 -13 -69 25 -28 31 -32 40 -20 48 20 13 21 12 74 -25z
m-1610 -13 l-30 -25 42 23 c45 26 57 23 115 -24 l28 -22 -72 -55 c-96 -73
-188 -160 -223 -210 -15 -22 -30 -38 -33 -36 -8 8 38 147 80 244 32 73 48 98
76 117 45 31 57 22 17 -12z m430 -4 c11 -17 -33 -58 -56 -52 -24 7 -24 11 3
40 23 25 43 29 53 12z"/>
<path fill="#333" d="M1452 4307 c20 -12 67 -50 105 -84 38 -33 96 -83 128 -109 131 -103
175 -158 175 -214 0 -20 0 -20 -37 -2 -48 25 -173 66 -179 59 -3 -2 18 -19 46
-37 28 -18 49 -34 47 -36 -4 -5 -205 84 -227 100 -8 6 -6 0 4 -12 11 -12 34
-31 51 -42 35 -21 208 -100 290 -131 28 -11 58 -24 68 -29 23 -14 22 5 -3 74
-58 155 -253 360 -431 456 -66 35 -91 40 -37 7z"/>
<path fill="#333" d="M3651 4310 c-93 -43 -235 -163 -271 -230 -8 -15 11 -2 51 34 35 32
109 92 164 133 130 98 127 95 56 63z"/>
<path fill="#333" d="M1490 4226 c0 -2 8 -10 18 -17 15 -13 16 -12 3 4 -13 16 -21 21 -21
13z"/>
<path d="M3601 4174 c-39 -19 -95 -58 -124 -86 -61 -58 -54 -55 78 32 55 37
109 72 120 78 48 27 -9 9 -74 -24z"/>
<path fill="#333" d="M1575 4155 c72 -66 125 -108 125 -98 0 13 -46 54 -115 102 l-60 42
50 -46z"/>
<path fill="#333" d="M1445 4179 c11 -7 57 -37 103 -67 90 -59 118 -65 50 -9 -45 36 -106
70 -148 81 -23 6 -23 6 -5 -5z"/>
<path fill="#333" d="M3282 4038 c-40 -65 -85 -162 -102 -218 l-17 -56 81 27 c140 47 345
147 375 183 11 13 -90 -25 -184 -69 -25 -12 -21 -6 20 31 28 26 41 41 29 36
-12 -6 -67 -29 -124 -51 l-103 -40 6 53 c3 30 15 72 26 95 25 49 21 54 -7 9z"/>
<path fill="#333"  d="M1351 4004 c0 -11 3 -14 6 -6 3 7 2 16 -1 19 -3 4 -6 -2 -5 -13z"/>
<path fill="#333" d="M3751 3999 c-3 -69 -80 -226 -133 -276 -13 -12 -39 -26 -58 -31 l-35
-10 30 -2 30 -2 -35 -12 c-22 -8 -29 -15 -20 -18 8 -3 -13 -8 -46 -12 -34 -4
-64 -9 -67 -13 -4 -3 15 -19 41 -36 26 -16 70 -51 99 -78 29 -27 61 -49 73
-49 29 0 88 59 70 70 -15 9 -10 36 29 140 16 41 32 93 35 115 7 36 6 38 -6 20
-8 -11 -27 -46 -44 -78 -16 -32 -49 -79 -72 -105 -41 -44 -42 -44 -14 -7 16
22 37 54 47 70 l19 30 -25 -20 c-57 -48 -60 -47 -18 5 69 85 118 222 106 298
l-4 27 -2 -26z"/>
<path fill="#333" d="M3483 3825 c-106 -25 -166 -50 -196 -82 -15 -17 -5 -16 95 12 62 18
124 35 138 39 25 6 94 57 75 55 -5 -1 -56 -12 -112 -24z"/>
<path fill="#333" d="M3593 3820 c-12 -15 -53 -45 -90 -68 -61 -36 -117 -82 -99 -82 4 0
43 14 88 31 99 38 207 128 136 112 -15 -3 -19 -2 -11 4 7 5 9 13 5 19 -4 7
-15 1 -29 -16z"/>
<path fill="#333" d="M1520 3834 c0 -14 32 -62 57 -86 31 -29 176 -93 170 -75 -2 6 -32 31
-68 55 -35 23 -85 58 -111 77 -27 19 -48 32 -48 29z"/>
<path fill="#333" d="M1586 3827 c7 -18 82 -52 148 -67 26 -6 63 -17 81 -24 44 -19 38 0
-10 33 -39 26 -118 55 -183 66 -35 6 -41 4 -36 -8z"/>
<path fill="#333" d="M2319 3740 c-26 -87 -23 -169 11 -248 28 -64 34 -63 15 3 -17 56 -20
213 -4 268 19 71 1 50 -22 -23z"/>
<path fill="#333" d="M2715 3796 c26 -89 25 -219 -1 -321 -4 -18 -4 -18 6 -2 6 9 17 47 25
85 16 74 7 166 -20 225 -9 18 -13 23 -10 13z"/>
<path fill="#333" d="M2861 3669 c-2 -77 -21 -161 -52 -224 -22 -45 -25 -54 -9 -35 58 70
87 178 71 260 l-9 45 -1 -46z"/>
<path fill="#333" d="M2125 3599 c-4 -6 -5 -12 -2 -15 2 -3 7 2 10 11 7 17 1 20 -8 4z"/>
<path fill="#333" d="M2527 3525 c-10 -102 -8 -333 2 -339 5 -3 14 40 21 96 12 98 9 221
-8 283 -7 26 -9 20 -15 -40z"/>
<path fill="#333" d="M2100 3519 c-14 -58 -9 -130 14 -180 15 -33 15 -33 8 -4 -4 17 -7 76
-7 133 0 56 -1 102 -2 102 0 0 -7 -23 -13 -51z"/>
<path fill="#333" d="M3720 3507 c-17 -26 -41 -77 -35 -77 6 0 57 91 53 95 -2 2 -10 -6
-18 -18z"/>
<path fill="#333" d="M3655 3394 c-9 -15 -12 -23 -6 -20 11 7 35 46 28 46 -3 0 -12 -12
-22 -26z"/>
<path fill="#333" d="M1947 3381 c51 -37 70 -65 121 -171 22 -47 48 -94 57 -105 l17 -20
-7 20 c-50 148 -99 227 -170 277 -53 37 -69 36 -18 -1z"/>
<path fill="#333" d="M3023 3308 c-47 -48 -112 -162 -100 -174 2 -3 26 31 51 75 26 45 60
97 77 116 46 52 31 43 -28 -17z"/>
<path fill="#333" d="M2963 3328 c-15 -20 -25 -38 -20 -38 3 0 12 11 21 25 17 26 16 35 -1
13z"/>
<path fill="#333" d="M3130 3160 c-71 -15 -185 -76 -239 -129 -56 -54 -84 -104 -99 -176
-12 -59 -7 -98 18 -120 18 -16 20 -15 47 15 39 43 91 54 168 34 110 -29 207
-3 276 73 32 35 47 65 80 152 12 33 13 33 65 29 37 -3 69 -14 106 -37 42 -27
49 -29 33 -11 -30 35 -106 80 -134 81 -25 1 -25 1 6 15 48 20 50 34 6 34 -21
0 -69 9 -107 20 -86 24 -168 32 -226 20z m-35 -80 c0 -8 -10 -16 -22 -18 -22
-3 -32 16 -16 32 12 11 38 2 38 -14z m157 -4 c13 -19 9 -75 -8 -114 -17 -43
-67 -97 -106 -118 -56 -29 -134 -10 -181 45 -39 47 -35 73 13 99 36 19 40 19
40 4 1 -23 68 -114 82 -110 25 9 63 103 63 158 l0 55 45 -4 c25 -2 48 -8 52
-15z m45 -57 c-7 -60 -45 -129 -86 -158 -44 -32 -45 -25 -3 17 40 40 67 94 77
155 9 56 19 45 12 -14z"/>
<path fill="#333" d="M1725 3139 c-40 -11 -87 -18 -108 -15 -45 5 -45 5 13 -28 39 -22 42
-26 20 -26 -30 0 -117 -48 -145 -80 -17 -20 -13 -19 35 8 66 37 136 55 148 38
4 -6 16 -36 25 -66 24 -77 75 -142 133 -170 51 -25 93 -28 216 -15 l77 8 36
-36 35 -35 16 30 c14 26 14 40 4 92 -17 84 -49 143 -111 202 -110 103 -246
136 -394 93z m202 -56 c7 -18 -17 -45 -34 -39 -22 9 -15 -34 17 -103 25 -53
33 -61 45 -51 19 16 65 109 65 132 0 44 57 7 81 -52 17 -42 -53 -127 -114
-137 -48 -7 -79 1 -118 34 -55 46 -81 131 -63 201 5 16 14 22 35 22 15 0 30 4
33 9 8 13 47 1 53 -16z"/>
<path fill="#333" d="M3572 2783 c-23 -112 -103 -198 -223 -240 -27 -10 -49 -20 -49 -24 0
-7 92 5 148 20 90 25 146 125 140 248 l-3 58 -13 -62z"/>
<path fill="#333" d="M3920 1806 c0 -2 8 -10 18 -17 15 -13 16 -12 3 4 -13 16 -21 21 -21
13z"/>
<path fill="#333" d="M1427 1572 c-7 -68 10 -179 40 -256 60 -151 246 -331 436 -422 42
-19 82 -34 89 -32 7 1 -50 66 -127 143 -110 111 -129 127 -91 77 27 -35 67
-82 90 -104 32 -33 23 -28 -44 23 -113 85 -247 221 -289 292 -48 83 -81 180
-89 267 l-8 75 -7 -63z"/>
<path fill="#333" d="M2320 1537 c0 -19 57 -180 86 -244 32 -72 131 -243 140 -243 8 0 -40
111 -128 295 -92 192 -98 203 -98 192z"/>
<path fill="#333" d="M2726 1411 c-71 -119 -124 -229 -140 -291 -4 -14 15 16 42 65 26 50
71 133 100 185 51 95 86 170 78 170 -2 0 -38 -58 -80 -129z"/>
<path fill="#333" d="M2216 1425 c-22 -179 57 -406 199 -570 24 -28 23 -26 -5 25 -55 95
-127 252 -150 325 -14 43 -25 112 -29 180 l-7 110 -8 -70z"/>
<path fill="#333" d="M2911 1275 c-16 -67 -93 -225 -174 -362 -66 -112 -127 -226 -110
-208 37 40 204 314 234 385 39 91 73 204 66 223 -2 6 -9 -11 -16 -38z"/>
<path fill="#333" d="M3149 1054 c-7 -9 -119 -105 -249 -214 -129 -108 -268 -232 -308
-275 l-74 -77 -31 28 c-18 16 -70 65 -117 109 -101 96 -157 143 -305 255
l-110 83 80 -83 c44 -45 148 -139 230 -208 83 -70 174 -149 203 -175 l53 -48
87 79 c48 43 159 137 247 209 158 128 273 241 308 302 19 32 9 43 -14 15z"/>
</g>
</svg>