<?xml version="1.0" encoding="utf-8"?>
 <svg className='hover:text-red-600' viewBox="0 0 37.498112 38.100006" xmlns="http://www.w3.org/2000/svg">
      <g id="layer1" transform="translate(-53.175588,-89.039342)">
        <path id="batman-path" d="M 90.554912,108.1781 A 13.893954,17.755026 0 0 1 76.660957,125.93313 13.893954,17.755026 0 0 1 62.767003,108.1781 13.893954,17.755026 0 0 1 76.660957,90.423075 13.893954,17.755026 0 0 1 90.554912,108.1781 Z m -0.866825,-4.25595 H 78.37715 q -0.79375,-5.754683 -6.548438,-5.95312 -6.746875,0.396875 -6.746875,10.71562 -0.198437,10.12032 7.14375,9.92188 5.159375,0 6.151563,-6.15156 h 11.509374 q -2.182812,14.08906 -17.462499,14.68437 -18.653125,-0.59531 -19.248438,-18.85156 0.79375,-18.057813 18.25625,-19.248438 16.271875,0.396875 18.25625,14.882808 z" />
        <path id="batman-path" fill="#fff" d="m 53.094429,93.973518 h 14.144758 v 1.012861 H 53.094429 Z m 20.080414,28.208072 h 17.510853 v 1.05192 H 73.174843 Z m -0.07821,-12.35122 h 17.570881 v 5.35676 h -17.57088 z m -12.677408,13.40198 v -1.01444 q 2.218662,-0.33815 2.823751,-0.67629 0.201697,0 0.201697,0 1.411875,-0.6763 1.411875,-3.38147 V 99.054836 q 0.403392,-4.226839 -4.437323,-4.057771 v -1.014436 h 16.740806 q 13.311967,0.169068 13.513663,7.946451 -0.201696,4.22684 -4.840715,6.59387 -2.016964,1.01444 -4.639018,1.35259 -1.815269,0.16908 -8.067859,0.16908 v 8.11553 q -0.605089,4.05776 4.639018,4.05776 v 1.01444 z M 73.126103,97.025946 v 11.497004 q 9.278038,0.84537 8.672948,-6.42479 0.201697,-6.76295 -6.25259,-6.593872 -2.420358,0 -2.420358,1.521658 z" />
      </g>
    </svg>
